<svg width="128" height="128" viewBox="0 0 128 128" fill="none" xmlns="http://www.w3.org/2000/svg">
<circle cx="64" cy="64" r="64" fill="#521611"/>
<circle cx="64" cy="64" r="64" fill="url(#paint0_radial_7_13)"/>
<path d="M37.9 79.6C36.1 79.6 34.44 79.28 32.92 78.64C31.4 77.96 30.2 77 29.32 75.76C28.44 74.52 28 73.04 28 71.32C28 68.04 29.64 65.56 32.92 63.88C36.2 62.16 41.6 61 49.12 60.4C49.08 59.08 48.8 57.86 48.28 56.74C47.8 55.62 47 54.74 45.88 54.1C44.76 53.42 43.26 53.08 41.38 53.08C40.14 53.08 38.9 53.26 37.66 53.62C36.46 53.94 35.3 54.38 34.18 54.94C33.1 55.46 32.1 56 31.18 56.56L29.26 53.2C30.22 52.56 31.38 51.92 32.74 51.28C34.14 50.6 35.64 50.06 37.24 49.66C38.84 49.22 40.5 49 42.22 49C44.9 49 47.1 49.5 48.82 50.5C50.58 51.5 51.88 52.9 52.72 54.7C53.6 56.46 54.04 58.56 54.04 61V78.88H50.02L49.6 74.92H49.42C47.82 76.2 46.02 77.3 44.02 78.22C42.02 79.14 39.98 79.6 37.9 79.6ZM39.22 75.64C40.9 75.64 42.56 75.26 44.2 74.5C45.84 73.74 47.48 72.68 49.12 71.32V63.64C44.96 64 41.68 64.5 39.28 65.14C36.92 65.78 35.24 66.6 34.24 67.6C33.28 68.56 32.8 69.68 32.8 70.96C32.8 72.04 33.1 72.94 33.7 73.66C34.3 74.34 35.08 74.84 36.04 75.16C37.04 75.48 38.1 75.64 39.22 75.64Z" fill="#FEEDC4"/>
<path d="M82.34 85.44V53.82C82.34 51.46 82.76 49.4 83.6 47.64C84.48 45.84 85.78 44.46 87.5 43.5C89.22 42.5 91.42 42 94.1 42C95.54 42 96.94 42.14 98.3 42.42C99.7 42.66 101.1 43.08 102.5 43.68L101.36 47.4C100.16 46.84 99.04 46.48 98 46.32C97 46.12 95.86 46.02 94.58 46.02C91.98 46.02 90.1 46.7 88.94 48.06C87.78 49.42 87.2 51.28 87.2 53.64V85.44H82.34ZM74 60.3V56.58L82.52 56.28H99.44V60.3H74Z" fill="#FEEDC4"/>
<defs>
<radialGradient id="paint0_radial_7_13" cx="0" cy="0" r="1" gradientUnits="userSpaceOnUse" gradientTransform="translate(64 64) rotate(90) scale(64)">
<stop stop-color="#E50D0E" stop-opacity="0.7"/>
<stop offset="1" stop-color="#521611" stop-opacity="0.53"/>
</radialGradient>
</defs>
</svg>
