<svg width="100" height="100" viewBox="0 0 100 100" fill="none" xmlns="http://www.w3.org/2000/svg">
<path d="M17 48V15.0355H24.8931L25.6824 22.2133H25.8798C27.5022 19.5106 29.4536 17.5167 31.7338 16.2318C34.0579 14.9026 36.5135 14.238 39.1007 14.238C40.5478 14.238 41.7098 14.3488 42.5868 14.5703C43.5077 14.7919 44.4505 15.1242 45.4152 15.5672L43.4419 23.7419C42.4334 23.4317 41.5125 23.2102 40.6793 23.0773C39.89 22.9001 38.8815 22.8114 37.6536 22.8114C35.6365 22.8114 33.6413 23.4096 31.668 24.6059C29.7386 25.8022 28.0723 27.8846 26.6691 30.8532V48H17Z" fill="#B31110"/>
<path d="M52.6249 48V42.4173C56.6153 39.0057 60.1014 35.9263 63.0832 33.1793C66.1089 30.3879 68.455 27.8403 70.1213 25.5363C71.7876 23.188 72.6208 21.017 72.6208 19.0232C72.6208 16.9408 72.0069 15.3679 70.779 14.3045C69.5951 13.1968 67.9287 12.643 65.7801 12.643C64.1137 12.643 62.579 13.086 61.1757 13.9722C59.8164 14.814 58.5447 15.8109 57.3607 16.9629L52.1644 11.7125C54.3131 9.45286 56.5276 7.76919 58.8078 6.66151C61.1319 5.55384 63.8945 5 67.0956 5C69.9897 5 72.5331 5.55384 74.7256 6.66151C76.962 7.76919 78.6941 9.34209 79.9219 11.3802C81.1936 13.374 81.8294 15.7223 81.8294 18.425C81.8294 20.8176 81.1059 23.2324 79.6588 25.6692C78.2556 28.1061 76.37 30.5652 74.0021 33.0464C71.678 35.4833 69.1785 37.898 66.5036 40.2906C67.6876 40.1577 68.9812 40.0469 70.3844 39.9583C71.7876 39.8253 73.0154 39.7589 74.0678 39.7589H84V48H52.6249Z" fill="#B31110"/>
<path d="M24 87.3809V61.7906H30.1891L30.808 67.3627H30.9628C32.235 65.2645 33.7651 63.7167 35.553 62.7193C37.3754 61.6874 39.3009 61.1715 41.3295 61.1715C42.4642 61.1715 43.3754 61.2575 44.0631 61.4294C44.7851 61.6014 45.5244 61.8594 46.2808 62.2033L44.7336 68.5493C43.9427 68.3085 43.2207 68.1366 42.5674 68.0334C41.9485 67.8958 41.1576 67.827 40.1949 67.827C38.6132 67.827 37.0487 68.2913 35.5015 69.22C33.9886 70.1487 32.682 71.7653 31.5817 74.0698V87.3809H24Z" fill="black"/>
<path d="M64.4155 88C61.9054 88 59.7048 87.3465 57.8137 86.0395C55.9226 84.698 54.4441 82.7547 53.3782 80.2094C52.3467 77.6641 51.8309 74.5513 51.8309 70.871C51.8309 65.2645 52.9828 61.0511 55.2865 58.2307C57.5902 55.4102 60.6332 54 64.4155 54C68.2321 54 71.2751 55.4102 73.5444 58.2307C75.8481 61.0511 77 65.2645 77 70.871C77 74.5513 76.467 77.6641 75.4011 80.2094C74.3696 82.7547 72.9083 84.698 71.0172 86.0395C69.1604 87.3465 66.9599 88 64.4155 88ZM64.4155 82.1184C65.5157 82.1184 66.4957 81.7744 67.3553 81.0865C68.2493 80.3986 68.9541 79.2291 69.4699 77.5781C69.9857 75.9272 70.2435 73.6915 70.2435 70.871C70.2435 68.0162 69.9857 65.7977 69.4699 64.2155C68.9541 62.5989 68.2493 61.481 67.3553 60.8619C66.4957 60.2084 65.5157 59.8816 64.4155 59.8816C63.3495 59.8816 62.3696 60.2084 61.4756 60.8619C60.5816 61.481 59.8768 62.5989 59.361 64.2155C58.8452 65.7977 58.5874 68.0162 58.5874 70.871C58.5874 73.6915 58.8452 75.9272 59.361 77.5781C59.8768 79.2291 60.5816 80.3986 61.4756 81.0865C62.3696 81.7744 63.3495 82.1184 64.4155 82.1184ZM64.4155 74.6889C63.3495 74.6889 62.4384 74.3278 61.6819 73.6055C60.9255 72.8832 60.5473 71.9373 60.5473 70.7678C60.5473 69.564 60.9255 68.6181 61.6819 67.9302C62.4384 67.2079 63.3495 66.8467 64.4155 66.8467C65.5157 66.8467 66.4269 67.2079 67.149 67.9302C67.9054 68.6181 68.2837 69.564 68.2837 70.7678C68.2837 71.9373 67.9054 72.8832 67.149 73.6055C66.4269 74.3278 65.5157 74.6889 64.4155 74.6889Z" fill="black"/>
</svg>
